<svg width="48" height="48" viewBox="0 0 48 48" fill="none" xmlns="http://www.w3.org/2000/svg">
<!-- Takode: pixel-art cat face with sunglasses (favicon) -->
<rect x="4" y="0" width="4" height="4" fill="#D97757"/>
<rect x="40" y="0" width="4" height="4" fill="#D97757"/>
<rect x="0" y="4" width="4" height="4" fill="#D97757"/>
<rect x="4" y="4" width="4" height="4" fill="#C06040"/>
<rect x="8" y="4" width="4" height="4" fill="#D97757"/>
<rect x="36" y="4" width="4" height="4" fill="#D97757"/>
<rect x="40" y="4" width="4" height="4" fill="#C06040"/>
<rect x="44" y="4" width="4" height="4" fill="#D97757"/>
<rect x="0" y="8" width="48" height="4" fill="#D97757"/>
<rect x="0" y="12" width="48" height="4" fill="#D97757"/>
<rect x="0" y="16" width="4" height="4" fill="#D97757"/>
<rect x="4" y="16" width="4" height="4" fill="#1A1A1A"/>
<rect x="8" y="16" width="4" height="4" fill="#1A1A1A"/>
<rect x="12" y="16" width="4" height="4" fill="#1A1A1A"/>
<rect x="16" y="16" width="4" height="4" fill="#2D2D2D"/>
<rect x="20" y="16" width="4" height="4" fill="#2D2D2D"/>
<rect x="24" y="16" width="4" height="4" fill="#2D2D2D"/>
<rect x="28" y="16" width="4" height="4" fill="#2D2D2D"/>
<rect x="32" y="16" width="4" height="4" fill="#1A1A1A"/>
<rect x="36" y="16" width="4" height="4" fill="#1A1A1A"/>
<rect x="40" y="16" width="4" height="4" fill="#1A1A1A"/>
<rect x="44" y="16" width="4" height="4" fill="#D97757"/>
<rect x="0" y="20" width="4" height="4" fill="#D97757"/>
<rect x="4" y="20" width="4" height="4" fill="#444444"/>
<rect x="8" y="20" width="4" height="4" fill="#1A1A1A"/>
<rect x="12" y="20" width="4" height="4" fill="#1A1A1A"/>
<rect x="16" y="20" width="4" height="4" fill="#2D2D2D"/>
<rect x="20" y="20" width="4" height="4" fill="#2D2D2D"/>
<rect x="24" y="20" width="4" height="4" fill="#2D2D2D"/>
<rect x="28" y="20" width="4" height="4" fill="#2D2D2D"/>
<rect x="32" y="20" width="4" height="4" fill="#444444"/>
<rect x="36" y="20" width="4" height="4" fill="#1A1A1A"/>
<rect x="40" y="20" width="4" height="4" fill="#1A1A1A"/>
<rect x="44" y="20" width="4" height="4" fill="#D97757"/>
<rect x="0" y="24" width="48" height="4" fill="#D97757"/>
<!-- Whiskers -->
<line x1="3" y1="25" x2="15" y2="24" stroke="#A04828" stroke-width="0.8" opacity="0.55"/>
<line x1="2" y1="26.5" x2="14" y2="26.5" stroke="#A04828" stroke-width="0.8" opacity="0.55"/>
<line x1="3" y1="28" x2="15" y2="29" stroke="#A04828" stroke-width="0.8" opacity="0.55"/>
<line x1="45" y1="25" x2="33" y2="24" stroke="#A04828" stroke-width="0.8" opacity="0.55"/>
<line x1="46" y1="26.5" x2="34" y2="26.5" stroke="#A04828" stroke-width="0.8" opacity="0.55"/>
<line x1="45" y1="28" x2="33" y2="29" stroke="#A04828" stroke-width="0.8" opacity="0.55"/>
<rect x="0" y="28" width="48" height="4" fill="#D97757"/>
<path d="M22 29 L26 29 L24 31.5 Z" fill="#FF8888"/>
<rect x="0" y="32" width="16" height="4" fill="#D97757"/>
<rect x="16" y="32" width="4" height="4" fill="#2D2D2D"/>
<rect x="20" y="32" width="8" height="4" fill="#D97757"/>
<rect x="28" y="32" width="4" height="4" fill="#2D2D2D"/>
<rect x="32" y="32" width="16" height="4" fill="#D97757"/>
<rect x="4" y="36" width="40" height="4" fill="#D97757"/>
<rect x="8" y="40" width="32" height="4" fill="#D97757"/>
<rect x="12" y="44" width="24" height="4" fill="#D97757"/>
</svg>
